<?xml version="1.0" standalone="no"?>
<!DOCTYPE svg PUBLIC "-//W3C//DTD SVG 20010904//EN"
 "http://www.w3.org/TR/2001/REC-SVG-20010904/DTD/svg10.dtd">
<svg version="1.0" xmlns="http://www.w3.org/2000/svg"
 width="720.000000pt" height="940.000000pt" viewBox="0 0 720.000000 940.000000"
 preserveAspectRatio="xMidYMid meet">

<g transform="translate(0.000000,940.000000) scale(0.100000,-0.100000)"
fill="#000000" stroke="none">
<path d="M4473 9168 c-6 -7 -13 -26 -17 -42 -7 -27 -9 -28 -49 -22 -23 4 -69
9 -102 12 -33 3 -66 11 -73 16 -8 7 -26 7 -57 -2 -33 -9 -52 -10 -76 -1 -39
13 -49 8 -49 -29 0 -18 -8 -34 -22 -44 -29 -21 -111 -21 -128 -1 -12 14 -15
14 -30 0 -10 -9 -20 -33 -24 -54 -7 -44 -20 -57 -104 -104 -70 -38 -102 -39
-102 -1 0 22 -4 24 -42 24 -66 -1 -90 -25 -95 -96 -4 -54 -8 -63 -52 -109 -26
-27 -59 -68 -74 -90 -14 -22 -68 -81 -118 -130 -50 -50 -110 -115 -132 -145
-46 -61 -177 -279 -177 -293 0 -5 -8 -21 -19 -35 -26 -39 -58 -143 -75 -252
-41 -258 -43 -328 -16 -590 12 -116 25 -156 63 -197 15 -18 22 -44 29 -125 10
-123 26 -208 38 -208 12 0 19 49 39 250 5 52 14 120 20 150 6 30 17 93 26 140
27 153 37 194 52 217 8 12 12 27 8 33 -4 6 9 42 28 80 29 55 37 84 41 147 9
134 39 292 72 379 27 74 64 147 77 152 4 2 7 9 7 16 0 20 117 116 143 116 9 0
17 6 17 14 0 20 23 26 101 26 55 0 82 -6 125 -26 52 -25 57 -25 87 -11 22 11
35 13 44 5 22 -18 95 -18 171 -1 68 16 76 16 105 1 18 -9 56 -22 85 -28 28 -7
54 -16 57 -20 9 -15 110 -21 141 -9 61 25 182 31 287 15 42 -6 46 -9 37 -26
-16 -29 -12 -33 24 -26 38 7 50 -8 40 -49 -6 -25 35 -75 61 -75 8 0 15 -8 15
-17 1 -20 39 -93 40 -78 1 6 5 1 9 -9 7 -18 -4 -65 -21 -91 -3 -6 -8 -76 -9
-157 -2 -110 1 -151 11 -162 11 -14 9 -19 -10 -36 -13 -11 -27 -20 -32 -20 -4
0 -8 -9 -8 -20 0 -24 -48 -47 -115 -54 -89 -9 -126 -18 -132 -32 -3 -7 -24
-24 -46 -38 -23 -13 -51 -33 -61 -45 -11 -12 -29 -21 -42 -21 -28 0 -84 -31
-84 -46 0 -7 7 -14 15 -17 19 -8 14 -137 -8 -192 -17 -42 -23 -130 -9 -139 8
-5 6 -170 -4 -229 -7 -44 16 -114 54 -164 23 -31 23 -34 8 -58 -9 -13 -16 -31
-16 -38 0 -32 -32 -77 -55 -77 -12 0 -36 -14 -53 -31 -28 -28 -38 -32 -94 -34
-49 -2 -68 1 -87 16 -13 11 -29 19 -37 19 -7 0 -14 5 -16 12 -7 20 -54 0 -97
-41 -50 -48 -53 -65 -11 -56 22 5 32 3 36 -9 8 -22 21 -20 27 4 8 30 67 27 96
-4 23 -24 23 -24 2 -31 -11 -3 -29 -1 -40 4 -28 15 -50 4 -66 -35 -8 -19 -21
-34 -30 -34 -23 0 -115 -41 -115 -51 0 -5 -9 -9 -19 -9 -10 0 -51 -13 -89 -30
-39 -16 -76 -30 -83 -30 -18 0 -79 -71 -85 -100 -3 -14 -12 -41 -19 -60 -15
-41 -6 -117 14 -112 6 1 19 -14 27 -33 12 -29 20 -35 44 -35 16 0 32 -4 35
-10 3 -5 25 -10 49 -10 36 0 48 -5 75 -35 17 -19 36 -35 41 -35 6 0 10 -20 10
-45 0 -51 12 -62 100 -90 124 -39 161 -67 180 -136 8 -29 8 -32 -4 -16 -10 13
-21 15 -45 11 -17 -4 -31 -10 -31 -15 0 -5 -9 -9 -20 -9 -13 0 -25 -11 -34
-32 -8 -18 -15 -28 -15 -23 -1 6 -16 9 -35 7 -18 -2 -37 1 -40 7 -8 13 -122
15 -130 2 -5 -7 -37 -8 -80 -2 -4 0 -6 21 -4 46 3 41 1 45 -19 45 -13 0 -23 5
-23 11 0 6 9 9 20 6 15 -4 20 0 20 14 0 25 -46 26 -79 2 -22 -15 -25 -15 -36
1 -12 15 -13 15 -26 0 -13 -16 -15 -14 -19 12 -8 43 0 74 19 74 13 0 16 11 16
60 0 51 -2 60 -17 60 -10 0 -18 -4 -18 -10 0 -16 -27 -12 -34 5 -7 19 -26 20
-26 1 0 -15 -37 -32 -47 -22 -3 3 -19 -4 -34 -15 -22 -15 -33 -18 -46 -10 -13
8 -14 10 -4 11 13 0 13 2 2 13 -11 10 -14 10 -18 0 -6 -17 -35 -16 -59 2 -12
9 -31 12 -51 9 -43 -8 -83 3 -83 21 0 8 -4 15 -10 15 -5 0 -10 5 -10 11 0 5 5
7 10 4 6 -3 10 -2 10 4 0 5 -12 11 -27 13 -26 3 -28 7 -31 53 -3 57 -17 92
-46 117 -26 21 -36 15 -36 -25 0 -28 4 -33 27 -35 38 -3 42 -12 5 -12 -26 0
-33 -5 -38 -27 -3 -16 -8 -35 -10 -44 -2 -9 -33 -39 -69 -68 -62 -49 -145
-142 -145 -162 0 -5 -15 -26 -33 -46 -18 -21 -49 -61 -69 -89 -32 -46 -36 -57
-40 -136 -4 -80 -7 -89 -37 -123 -34 -39 -36 -56 -15 -139 5 -23 0 -44 -23
-90 -30 -59 -56 -130 -72 -191 -7 -27 -9 -28 -15 -10 -4 11 -17 37 -28 58 -17
33 -19 49 -13 110 4 44 14 85 27 104 13 22 19 46 17 72 -2 21 2 45 7 53 24 29
66 128 62 145 -2 12 -15 20 -36 23 -31 5 -32 6 -17 27 11 15 28 23 58 25 23 2
41 8 39 13 -2 6 -11 9 -20 8 -199 -22 -254 -37 -270 -72 -19 -40 -15 -51 18
-51 38 0 38 -15 0 -35 -31 -16 -140 -21 -140 -6 0 4 -11 20 -24 34 -23 25 -30
27 -111 26 -82 -2 -228 -34 -180 -40 11 -1 27 -3 35 -5 8 -1 23 -2 33 -3 9 -1
17 -9 17 -19 0 -11 11 -24 25 -30 14 -7 28 -19 31 -27 4 -8 14 -15 25 -15 30
0 43 -35 23 -65 -20 -30 -26 -31 -49 -5 -13 14 -31 20 -62 20 -39 0 -43 2 -43
24 0 27 -33 56 -62 56 -9 0 -29 5 -43 12 -19 8 -24 16 -19 31 6 19 3 20 -84
13 -59 -4 -120 -17 -174 -35 -46 -16 -112 -32 -148 -35 -85 -7 -154 -26 -297
-81 -163 -62 -258 -111 -282 -143 -12 -15 -25 -32 -31 -39 -10 -12 -14 -33 -5
-33 2 0 21 9 41 21 74 41 115 8 80 -66 -20 -42 -20 -117 0 -156 17 -34 36
-179 25 -194 -45 -60 -53 -213 -13 -244 38 -31 56 -91 27 -91 -8 0 -15 -9 -15
-20 0 -23 3 -24 33 -7 31 17 37 27 37 65 0 27 4 32 24 32 30 0 34 11 42 108 7
90 20 115 40 77 7 -14 14 -47 16 -73 3 -43 5 -47 31 -50 36 -4 34 -20 -3 -33
-16 -6 -30 -17 -30 -23 0 -7 -9 -21 -20 -31 -11 -10 -20 -26 -20 -35 0 -10 -7
-23 -15 -30 -8 -7 -15 -18 -15 -26 0 -7 -10 -22 -22 -33 l-21 -20 -37 20 -38
21 -21 -21 c-29 -29 -36 -27 -56 15 -13 28 -16 51 -11 103 5 60 6 93 2 158 0
11 -12 30 -26 41 -16 13 -34 46 -49 90 -21 66 -22 72 -6 96 14 21 15 30 4 60
-15 42 -7 56 19 33 27 -25 42 -21 42 11 0 35 -27 62 -63 62 -24 0 -27 4 -27
34 0 19 4 46 10 60 9 25 8 26 -18 20 -15 -4 -34 -13 -43 -20 -8 -8 -20 -14
-26 -14 -6 0 -26 -16 -44 -35 -20 -21 -43 -35 -57 -35 -31 0 -62 -17 -62 -34
0 -8 -6 -16 -13 -19 -7 -3 -19 -24 -26 -47 -7 -23 -15 -49 -19 -58 -10 -28 57
26 73 59 9 16 20 29 25 29 13 0 13 -37 0 -45 -5 -3 -10 -13 -10 -21 0 -10 7
-13 24 -8 18 4 25 1 29 -17 3 -12 0 -34 -7 -48 -8 -14 -21 -53 -31 -85 -25
-86 -96 -147 -131 -112 -21 22 -41 20 -49 -4 -7 -22 -45 -48 -45 -31 0 6 -8 7
-17 4 -11 -4 -13 -8 -5 -11 21 -7 43 -71 32 -92 -6 -10 -10 -30 -10 -44 0 -14
-11 -42 -25 -62 -14 -20 -25 -44 -25 -54 0 -21 -41 -60 -64 -60 -14 0 -16 6
-10 35 9 49 -12 45 -27 -5 -7 -22 -16 -40 -20 -40 -8 0 -12 -20 -23 -105 -5
-37 -4 -38 9 -21 14 18 15 15 15 -33 0 -52 -24 -121 -41 -121 -5 0 -7 24 -4
53 2 28 1 45 -2 37 -3 -8 -9 -17 -12 -20 -3 -3 -21 -33 -38 -68 l-33 -63 0
-420 c0 -416 0 -420 20 -414 18 6 20 2 20 -44 0 -44 -3 -51 -20 -51 -18 0 -20
-7 -20 -72 0 -60 4 -76 25 -104 36 -47 55 -200 35 -276 -9 -34 -15 -107 -15
-203 -1 -113 -4 -156 -15 -172 -8 -13 -18 -23 -22 -23 -5 0 -8 -245 -8 -545
l0 -545 21 0 c37 0 119 -43 125 -66 3 -11 -2 -40 -10 -65 -9 -24 -16 -54 -16
-65 0 -36 -53 -46 -95 -18 l-25 16 0 -112 c0 -103 2 -112 20 -117 27 -7 27
-69 0 -103 -11 -14 -20 -41 -20 -62 l0 -38 126 0 c105 0 129 3 139 16 10 15
13 15 27 0 15 -14 55 -16 325 -16 227 0 312 3 321 12 9 9 12 9 12 0 0 -9 33
-12 118 -12 l117 0 24 67 c24 73 64 128 85 120 17 -7 26 -53 26 -128 l0 -59
293 0 c174 0 286 4 278 9 -24 15 -17 90 13 154 21 44 39 65 77 90 27 17 52 40
55 49 6 22 30 23 49 4 11 -10 12 -22 5 -45 -5 -17 -5 -29 -1 -26 21 13 18 -69
-4 -137 -14 -40 -25 -79 -25 -85 0 -10 28 -13 105 -13 88 0 105 3 105 15 0 43
70 138 94 129 9 -3 23 -3 32 0 16 6 16 8 0 25 -18 20 -10 37 11 20 9 -8 13 -8
13 -1 0 6 6 9 14 6 10 -4 16 4 21 25 4 18 15 33 28 37 20 6 20 7 1 21 -10 8
-27 12 -37 9 -22 -5 -39 25 -35 62 2 21 11 30 36 38 43 14 52 28 52 87 l0 48
60 -2 c50 -2 63 -6 73 -23 6 -12 10 -28 9 -36 -9 -49 -58 -154 -97 -205 -25
-33 -45 -70 -45 -82 0 -12 -4 -24 -9 -27 -4 -3 -9 -37 -10 -76 l-2 -70 2325 0
2325 0 35 22 35 23 1 1259 c0 1050 -2 1262 -14 1275 -13 16 -13 18 9 179 7 45
5 52 -9 52 -9 0 -16 8 -16 20 0 10 -9 24 -20 30 -18 10 -20 19 -18 77 2 44 -1
68 -9 70 -8 3 -10 24 -6 73 5 60 3 72 -16 96 -15 19 -18 31 -11 38 13 13 13
46 0 46 -15 0 -41 71 -38 102 1 15 -5 35 -15 46 -10 11 -19 30 -20 43 -2 13
-9 35 -17 49 -8 14 -15 45 -15 70 0 43 -2 45 -30 48 -38 5 -55 19 -53 46 0 11
-7 38 -16 58 -9 21 -16 49 -16 63 0 28 -3 29 -30 15 -15 -8 -21 -6 -29 9 -12
22 -62 80 -143 167 -32 33 -58 66 -58 71 0 7 -15 9 -39 6 -36 -5 -42 -2 -77
37 -21 23 -55 50 -76 61 -22 11 -41 26 -44 34 -3 8 -21 19 -40 25 -19 6 -34
16 -34 21 0 5 -16 15 -35 23 -19 8 -35 21 -35 29 0 17 -24 29 -43 21 -7 -2
-22 4 -32 16 -10 11 -24 20 -30 20 -7 0 -15 6 -18 14 -3 7 -23 18 -44 23 -21
5 -37 15 -36 21 2 6 -43 34 -98 62 -56 28 -111 62 -121 75 -11 14 -39 37 -64
51 -24 14 -44 30 -44 35 0 5 -6 9 -13 9 -7 0 -22 6 -32 14 -16 11 -17 17 -7
29 14 17 -2 27 -43 27 -13 0 -27 5 -31 11 -3 6 -20 9 -37 6 -24 -3 -36 2 -53
22 -13 14 -26 34 -29 44 -4 10 -12 17 -18 15 -22 -4 -57 13 -57 28 0 8 9 14
20 14 11 0 20 4 20 8 0 5 10 14 23 20 21 10 21 11 -11 17 -38 9 -48 21 -33 39
15 18 2 27 -22 15 -16 -9 -24 -7 -41 10 l-21 22 24 18 c27 20 13 32 -30 25
-33 -6 -79 30 -61 47 6 7 12 26 12 42 0 24 -4 28 -22 25 -29 -4 -58 25 -58 56
0 28 19 45 30 26 4 -6 10 7 13 32 3 23 14 50 24 58 40 34 87 105 111 168 14
37 31 74 37 82 20 24 43 85 50 135 4 25 11 48 16 51 5 3 9 18 9 34 0 54 25
123 55 154 40 41 67 117 70 196 2 36 4 65 5 65 1 0 3 9 6 20 5 26 30 147 43
205 5 25 23 77 39 115 50 122 56 155 48 278 -7 125 -21 184 -52 219 -34 40
-35 44 -10 119 13 41 31 115 41 164 9 50 20 113 26 140 11 59 3 342 -13 435
-6 36 -17 77 -24 92 -8 15 -14 35 -14 44 0 17 -37 109 -73 182 -12 24 -42 65
-66 90 -24 26 -52 65 -62 88 -10 23 -44 69 -74 103 -31 35 -68 81 -82 102 -15
22 -46 52 -70 66 -26 15 -43 32 -43 44 0 25 -85 121 -121 137 -16 6 -50 27
-77 46 -70 49 -105 64 -130 55 -12 -5 -22 -13 -22 -19 0 -23 -42 -9 -58 20
-11 19 -42 43 -87 67 -65 34 -134 95 -178 158 -19 27 -58 34 -74 13z m421
-991 c13 -20 5 -30 -18 -21 -9 3 -16 15 -16 26 0 22 18 20 34 -5z m119 -972
c-4 -15 -66 -12 -71 3 -3 10 6 13 34 10 22 -2 38 -7 37 -13z m-231 -204 c5
-18 7 -35 4 -38 -6 -6 -77 16 -89 27 -14 12 32 52 56 48 14 -2 24 -13 29 -37z
m195 -311 c25 -9 29 -15 25 -35 -4 -23 -2 -25 27 -19 32 7 111 -20 111 -38 0
-4 6 -8 13 -8 26 0 45 -26 52 -67 6 -36 4 -43 -9 -43 -9 0 -16 -8 -16 -17 0
-10 -14 -35 -30 -57 -23 -30 -27 -43 -20 -57 12 -22 13 -42 1 -35 -12 8 -21
-18 -14 -43 4 -16 1 -21 -16 -21 -17 0 -21 -6 -23 -37 0 -21 0 -50 1 -64 1
-18 -5 -29 -24 -39 -14 -7 -25 -17 -25 -22 0 -4 -13 -8 -29 -8 -17 0 -33 -4
-36 -10 -8 -13 -52 -13 -60 0 -3 5 -16 8 -28 6 -23 -3 -77 46 -77 71 0 7 -13
22 -30 34 -16 12 -27 26 -24 30 6 11 -31 30 -41 21 -4 -4 2 12 14 35 11 23 26
45 32 49 7 4 10 45 8 123 -2 64 0 121 4 128 4 7 5 23 2 35 -4 17 1 30 20 48
l26 25 17 -23 17 -22 49 35 c27 19 50 35 51 35 1 0 16 -5 32 -10z m-770 -477
c-3 -3 -14 0 -24 7 -16 10 -16 11 0 6 13 -4 17 1 18 22 l2 27 4 -28 c3 -16 2
-31 0 -34z m-114 -121 c17 -13 70 -25 63 -14 -3 5 6 7 19 4 30 -5 34 -36 8
-64 -11 -13 -30 -18 -67 -18 -50 0 -138 -21 -160 -39 -6 -4 -38 -16 -71 -26
-33 -10 -64 -22 -69 -27 -6 -4 -18 -8 -29 -8 -15 0 -12 7 17 35 20 19 36 43
36 53 0 28 70 94 95 89 13 -2 48 10 81 28 53 29 59 30 62 14 2 -9 9 -22 15
-27z m160 -27 c4 -8 2 -17 -3 -20 -6 -4 -10 3 -10 14 0 25 6 27 13 6z m91 -7
c8 -14 7 -22 -7 -35 -16 -16 -18 -16 -38 4 -26 26 -19 56 12 51 12 -2 27 -11
33 -20z m-354 -245 c13 -10 38 -18 55 -18 85 -4 95 -6 95 -19 0 -22 17 -28 39
-14 11 7 24 9 28 5 4 -5 1 -12 -6 -16 -9 -6 -11 -16 -6 -32 l8 -24 10 23 c6
12 14 22 19 22 13 0 10 -36 -4 -48 -13 -10 -18 -12 -38 -12 -6 0 -15 -11 -20
-25 -8 -21 -16 -25 -42 -23 -18 1 -33 -3 -36 -10 -5 -15 -41 -15 -70 1 -22 13
-52 58 -52 79 0 6 -12 19 -26 30 -14 12 -30 32 -35 46 -18 48 32 69 81 35z
m320 -58 c6 -8 21 -13 33 -12 13 1 23 -5 25 -15 3 -14 -3 -18 -26 -18 -21 0
-31 -6 -35 -20 -7 -28 -48 -42 -63 -21 -9 12 -9 18 3 27 9 6 13 17 11 25 -7
19 9 49 26 49 8 0 19 -7 26 -15z m-840 -251 c0 -23 -12 -44 -25 -44 -23 0 -27
18 -13 56 11 32 14 33 25 18 7 -10 13 -23 13 -30z m-487 13 c7 -19 -36 -90
-64 -104 -53 -27 -44 57 11 95 38 25 46 27 53 9z m541 -21 c-3 -9 -10 -16 -15
-16 -6 0 -5 9 1 21 13 24 24 20 14 -5z m-11 -93 c-7 -2 -19 -2 -25 0 -7 3 -2
5 12 5 14 0 19 -2 13 -5z m-640 -102 c22 -38 22 -94 0 -113 -29 -24 -97 -55
-110 -51 -18 6 -16 68 3 105 18 35 64 86 79 87 6 1 18 -12 28 -28z m355 -119
c33 -29 35 -34 20 -43 -22 -12 -23 -29 -3 -29 9 0 29 -16 46 -35 17 -19 37
-35 45 -35 8 0 14 -8 14 -19 0 -11 11 -23 28 -30 15 -6 57 -41 94 -76 47 -46
74 -65 93 -65 14 0 28 -7 31 -15 4 -8 17 -15 30 -15 13 0 24 -4 24 -10 0 -15
42 -50 60 -50 9 0 27 -11 40 -25 19 -21 30 -24 53 -19 32 7 47 -6 47 -41 0
-20 53 -75 71 -75 5 0 9 -9 9 -19 0 -11 5 -21 10 -23 6 -2 13 -28 17 -58 3
-30 12 -59 20 -63 17 -11 7 -28 -12 -20 -21 8 -18 -14 5 -37 11 -11 20 -25 20
-31 0 -5 5 -7 10 -4 6 4 8 11 5 16 -4 5 3 9 13 9 23 0 33 -36 25 -86 -3 -18 0
-34 6 -38 7 -4 11 1 11 13 0 17 6 21 30 21 24 0 30 -4 30 -22 0 -30 28 -58 59
-58 20 0 23 2 11 10 -8 5 -13 10 -10 10 3 0 19 4 35 9 29 8 30 7 32 -27 1 -20
11 -44 24 -58 15 -16 20 -31 17 -49 -7 -33 14 -55 53 -55 26 0 29 -3 24 -20
-5 -16 -2 -20 15 -20 17 0 21 5 17 20 -3 11 -1 20 5 20 6 0 8 -17 6 -40 -2
-23 1 -40 7 -41 5 0 41 -3 79 -5 39 -2 72 -7 75 -10 3 -3 0 -13 -7 -22 -7 -9
-20 -33 -28 -52 -9 -19 -22 -42 -29 -50 -7 -8 -17 -27 -20 -42 -6 -23 -4 -28
12 -28 11 0 27 8 36 18 9 9 32 26 52 36 31 17 38 18 46 5 23 -36 -1 -69 -83
-113 l-47 -25 -15 21 c-15 21 -16 20 -65 -31 -27 -29 -52 -66 -55 -82 -8 -39
-169 -199 -201 -199 -6 0 -22 -21 -35 -47 -37 -72 -51 -79 -72 -38 -10 18 -27
37 -38 40 -12 4 -43 34 -70 68 -27 34 -62 73 -79 87 -17 14 -31 29 -31 33 0
12 -62 93 -110 145 -14 15 -38 45 -53 68 -15 22 -38 50 -50 62 -44 41 -51 56
-53 111 -1 31 -9 103 -17 161 -15 100 -23 126 -97 285 -10 22 -26 60 -36 85
-10 25 -32 65 -50 90 -28 40 -63 116 -143 310 -54 131 -83 284 -57 302 5 3 2
13 -7 23 -21 21 -21 26 1 53 10 13 18 17 20 9 2 -7 20 -27 40 -45z m-783 -22
c-3 -5 -11 -10 -16 -10 -6 0 -7 5 -4 10 3 6 11 10 16 10 6 0 7 -4 4 -10z m345
-66 c0 -8 -7 -14 -15 -14 -15 0 -21 21 -9 33 10 9 24 -2 24 -19z m20 -103 c20
-39 21 -49 10 -84 -10 -33 -14 -38 -34 -33 -14 3 -41 -3 -70 -18 l-47 -24 -15
24 c-11 16 -14 33 -9 56 8 34 46 102 65 113 6 4 15 18 20 31 l9 24 24 -23 c13
-12 34 -42 47 -66z m-370 76 c0 -14 -52 -106 -68 -120 -40 -37 -87 22 -66 82
6 17 19 28 39 32 33 7 95 11 95 6z m-825 -47 c-10 -11 -31 -20 -46 -20 -15 0
-30 -4 -33 -9 -3 -4 -21 -3 -39 2 l-34 11 21 18 c15 12 39 17 85 18 63 0 64 0
46 -20z m-327 -179 c5 -55 -10 -106 -35 -115 -20 -8 -70 20 -84 47 -7 12 -15
24 -18 27 -3 3 -14 15 -24 26 -18 21 -17 22 11 53 23 26 34 31 55 26 14 -4 34
-2 44 4 27 15 45 -9 51 -68z m251 40 c8 -14 7 -22 -2 -29 -19 -16 -40 2 -32
27 8 26 21 27 34 2z m139 -64 c4 -61 -23 -123 -45 -105 -12 9 -14 25 -9 66 12
99 48 125 54 39z m991 -24 c-2 -21 8 -39 37 -71 40 -43 40 -43 33 -100 -8 -55
-21 -75 -65 -100 -8 -4 -15 -19 -16 -32 -4 -32 -38 -50 -94 -50 -47 0 -52 6
-29 36 8 10 15 39 15 64 0 64 16 112 55 170 19 29 35 58 35 65 0 22 11 45 22
45 5 0 8 -12 7 -27z m-603 -38 c4 -23 2 -41 -7 -51 -12 -14 -15 -14 -31 6 -18
22 -24 61 -11 73 19 19 42 5 49 -28z m254 10 c0 -14 -4 -25 -10 -25 -5 0 -10
11 -10 25 0 14 5 25 10 25 6 0 10 -11 10 -25z m-9 -98 c-8 -8 -14 -8 -22 0 -9
9 -7 19 7 40 l19 28 3 -29 c2 -16 -1 -33 -7 -39z m3019 53 c0 -5 -2 -10 -4
-10 -3 0 -8 5 -11 10 -3 6 -1 10 4 10 6 0 11 -4 11 -10z m-4207 -134 c4 -6 5
-20 2 -31 -3 -11 -7 -39 -10 -62 -4 -49 -11 -63 -30 -63 -18 0 -21 15 -17 103
3 75 5 78 25 71 12 -4 25 -12 30 -18z m1385 -43 c6 -2 -26 -98 -46 -138 -11
-22 -22 -46 -24 -54 -6 -20 -39 -23 -59 -5 -17 15 -17 14 7 119 3 17 22 47 42
67 30 32 37 35 56 25 11 -7 22 -13 24 -14z m-541 -32 c23 -15 30 -25 26 -40
-3 -12 2 -39 11 -61 24 -60 10 -80 -54 -80 -49 0 -76 -14 -43 -23 14 -4 13 -5
-4 -6 -14 -1 -23 5 -23 13 0 8 -7 17 -16 20 -13 5 -14 18 -8 78 9 100 17 118
51 118 16 0 42 -9 60 -19z m-350 -13 c-3 -8 -6 -5 -6 6 -1 11 2 17 5 13 3 -3
4 -12 1 -19z m3 -87 c0 -20 -17 -37 -27 -28 -7 8 7 47 18 47 5 0 9 -9 9 -19z
m790 -130 c0 -11 -40 -22 -52 -15 -5 3 -6 10 -3 15 8 12 55 12 55 0z m-450
-18 c0 -9 8 -25 17 -35 42 -46 58 -181 28 -238 -14 -27 -20 -30 -68 -30 -31 0
-62 -6 -75 -16 -21 -14 -23 -14 -33 13 -7 17 -8 58 -5 103 6 73 7 76 51 116
42 37 61 84 35 84 -5 0 -10 5 -10 10 0 6 14 10 30 10 21 0 30 -5 30 -17z
m-1300 -125 c33 -109 35 -130 13 -157 -26 -32 -72 -22 -97 19 -9 17 -26 30
-36 30 -16 0 -20 -7 -18 -38 0 -21 -4 -47 -10 -59 -9 -16 -9 -24 -1 -28 6 -4
8 -18 5 -31 -4 -15 -1 -33 9 -47 17 -25 20 -69 5 -95 -6 -9 -19 -37 -30 -62
-39 -86 -72 -130 -98 -130 -10 0 -12 -7 -8 -24 3 -14 2 -28 -4 -31 -5 -3 -10
-28 -10 -55 0 -27 -9 -69 -19 -92 -11 -24 -22 -50 -25 -60 -2 -9 -19 -19 -37
-23 -41 -9 -65 16 -74 79 -8 53 28 180 56 200 35 24 89 127 89 169 0 21 11 63
25 93 14 30 25 59 25 64 0 5 8 14 19 19 10 6 24 25 31 43 6 18 17 44 23 58 6
14 12 30 12 35 7 60 23 105 57 155 50 76 67 71 98 -32z m4854 13 c4 -5 -3 -7
-14 -4 -23 6 -26 13 -6 13 8 0 17 -4 20 -9z m-4044 -56 c0 -35 -3 -43 -15 -39
-16 6 -19 33 -9 71 10 36 24 16 24 -32z m1360 -66 c0 -68 -1 -70 -22 -63 -32
10 -38 22 -22 53 8 14 11 34 8 44 -6 20 13 50 27 41 5 -3 9 -37 9 -75z m-410
-8 c0 -11 -4 -23 -10 -26 -6 -4 -10 5 -10 19 0 14 5 26 10 26 6 0 10 -9 10
-19z m2611 9 c10 -6 19 -15 19 -21 0 -6 9 -22 20 -36 28 -36 25 -52 -14 -68
-19 -8 -37 -19 -40 -24 -3 -4 -16 -6 -30 -4 -13 3 -27 0 -30 -6 -15 -23 -33
-9 -47 37 -19 56 -8 92 26 92 12 0 30 9 40 20 21 23 29 24 56 10z m-2670 -53
c-15 -15 -44 14 -36 35 6 15 9 14 27 -4 15 -15 17 -23 9 -31z m2441 -5 c8 -55
-13 -72 -29 -24 -6 15 -8 33 -6 40 8 23 31 12 35 -16z m1539 -56 c18 -84 14
-91 -57 -92 -68 -1 -105 16 -86 39 9 10 8 18 -2 33 -7 10 -12 30 -11 44 1 21
8 26 41 30 21 3 53 3 71 1 30 -3 33 -7 44 -55z m-4494 -28 c-3 -7 -5 -2 -5 12
0 14 2 19 5 13 2 -7 2 -19 0 -25z m-705 -40 c17 -23 17 -37 -4 -131 -11 -51
-35 -73 -69 -62 -29 9 -69 -20 -69 -50 0 -14 4 -25 10 -25 6 0 7 -18 3 -45 -7
-52 7 -75 43 -75 35 0 47 -39 40 -130 -5 -69 -8 -77 -38 -102 -37 -31 -73 -36
-82 -12 -9 24 -7 92 5 183 10 77 10 84 -9 104 -23 25 -53 105 -54 146 -1 35 8
51 30 51 34 1 52 25 52 72 0 25 7 60 16 78 16 31 18 32 63 26 31 -4 52 -14 63
-28z m348 1 c4 -8 12 -24 19 -37 8 -15 10 -43 5 -83 -7 -59 -7 -60 -50 -79
-55 -25 -57 -25 -76 8 -14 24 -14 36 -3 100 14 83 11 76 50 96 33 18 45 17 55
-5z m480 -58 c23 -6 25 -12 27 -71 1 -76 -11 -117 -39 -126 -20 -6 -79 -7
-133 -1 l-30 3 0 88 c0 75 3 90 19 102 21 15 111 18 156 5z m380 -16 c9 -10
22 -14 39 -10 32 7 57 -25 42 -53 -5 -9 -7 -30 -5 -47 6 -44 -16 -64 -81 -75
-31 -5 -65 -12 -75 -15 -15 -5 -21 2 -29 32 -12 41 -15 142 -5 167 8 22 96 22
114 1z m483 -34 c4 0 7 -37 7 -80 0 -89 -14 -114 -58 -109 -40 5 -66 50 -66
113 1 30 6 61 12 68 9 11 65 15 105 8z m258 -44 c-6 -6 -4 -26 5 -56 18 -59
18 -81 -1 -81 -25 0 -36 36 -29 107 6 78 14 96 26 63 5 -14 5 -27 -1 -33z
m2067 31 c21 -21 13 -28 -35 -28 l-48 0 30 19 c37 24 38 24 53 9z m777 -22
c11 -8 24 -12 31 -9 18 7 25 -63 9 -101 -14 -33 -40 -46 -76 -39 -23 5 -47 54
-39 83 9 35 32 31 42 -7 11 -44 18 -41 18 7 0 38 -2 40 -29 40 -38 0 -49 17
-19 29 32 13 42 13 63 -3z m-880 -16 c-3 -5 -11 -10 -16 -10 -6 0 -7 5 -4 10
3 6 11 10 16 10 6 0 7 -4 4 -10z m-115 -30 c0 -5 -4 -10 -10 -10 -5 0 -10 5
-10 10 0 6 5 10 10 10 6 0 10 -4 10 -10z m637 -32 c-3 -7 -5 -2 -5 12 0 14 2
19 5 13 2 -7 2 -19 0 -25z m801 -8 c2 -11 -6 -16 -24 -18 -15 -1 -33 -11 -41
-22 -29 -41 -80 -9 -59 37 10 21 16 23 66 21 40 -2 56 -7 58 -18z m-5576 -54
c4 -6 5 -20 3 -31 -2 -11 -6 -36 -10 -56 -7 -46 -37 -83 -53 -67 -7 7 -12 18
-12 25 0 7 -4 13 -10 13 -5 0 -10 -4 -10 -10 0 -5 -5 -10 -12 -10 -22 0 -48
-33 -48 -62 0 -24 -4 -28 -26 -28 -21 0 -25 3 -19 18 5 9 11 58 14 107 9 143
49 184 131 137 25 -14 48 -31 52 -36z m3998 14 c0 -5 11 -12 25 -16 15 -4 25
-13 25 -24 0 -21 -98 -109 -141 -128 -28 -11 -33 -10 -55 10 -31 30 -31 63 2
85 14 10 43 33 63 50 34 31 81 44 81 23z m1862 -32 c-15 -15 -26 -4 -18 18 5
13 9 15 18 6 9 -9 9 -15 0 -24z m-272 -4 c0 -26 -31 -44 -53 -32 -18 9 -18 11
-1 29 21 23 54 25 54 3z m-4933 -89 c65 -10 77 -31 69 -116 -10 -98 -11 -99
-63 -99 -24 0 -53 -5 -64 -10 -15 -9 -26 -6 -51 11 l-31 22 6 79 c8 94 27 131
66 124 14 -3 45 -8 68 -11z m891 -29 c40 -2 65 -46 70 -120 4 -63 3 -66 -31
-101 l-35 -37 -21 21 c-19 19 -21 19 -31 3 -8 -12 -13 -14 -16 -4 -3 6 -13 12
-23 12 -9 0 -27 7 -39 16 -21 15 -22 20 -16 92 7 87 24 117 61 107 16 -4 25 0
29 10 3 8 11 12 17 8 5 -3 21 -6 35 -7z m-450 -12 c59 -7 62 -8 67 -38 3 -17
2 -62 -2 -101 -7 -63 -10 -70 -35 -79 -19 -7 -45 -4 -95 10 l-68 20 -3 76 c-2
67 0 80 18 98 22 22 29 23 118 14z m940 -162 c-3 -95 -13 -108 -74 -96 -70 13
-93 74 -57 149 13 26 27 38 55 47 21 6 38 16 38 22 0 6 9 0 20 -14 17 -21 20
-38 18 -108z m314 95 c28 -25 38 -42 43 -80 6 -37 11 -47 26 -47 12 0 19 -7
19 -20 0 -13 -7 -20 -19 -20 -11 0 -23 -4 -26 -10 -3 -5 -24 -14 -45 -20 -22
-6 -40 -15 -40 -20 0 -21 -17 -8 -33 25 -26 54 -23 174 3 203 12 12 24 22 28
22 4 0 23 -15 44 -33z m1348 -43 c0 -21 -42 -64 -62 -64 -6 0 -23 -10 -40 -21
-20 -15 -38 -20 -58 -16 -21 5 -30 2 -35 -11 -6 -16 -8 -15 -21 2 -8 11 -14
29 -14 41 0 32 107 126 155 137 26 6 75 -39 75 -68z m1079 4 c-1 -13 -4 -36
-8 -52 -6 -28 -7 -29 -23 -12 -21 21 -22 27 -6 61 14 31 38 33 37 3z m294 -23
c1 -5 -6 -11 -15 -13 -11 -2 -18 3 -18 13 0 17 30 18 33 0z m87 6 c0 -11 -31
-24 -39 -16 -3 3 1 10 9 15 19 12 30 12 30 1z m358 -38 c38 -5 40 -7 45 -47 3
-22 4 -54 4 -71 -2 -29 -3 -30 -66 -35 -59 -5 -67 -3 -88 20 -27 29 -28 39 -9
65 9 12 12 32 9 52 -3 19 0 39 7 48 12 14 15 13 36 -5 12 -12 40 -24 62 -27z
m-5696 17 c22 -16 26 -28 26 -72 0 -58 -25 -185 -41 -205 -16 -21 -35 -15 -42
15 -4 17 -20 36 -45 52 -47 28 -52 58 -20 117 11 21 20 43 20 49 0 13 56 64
69 64 5 0 20 -9 33 -20z m2911 -14 c16 -13 34 -32 40 -43 7 -11 24 -39 40 -61
15 -23 27 -48 27 -57 0 -17 -26 -20 -36 -4 -4 7 -25 9 -56 7 -39 -4 -51 -2
-58 12 -7 13 -8 95 -1 158 2 17 12 15 44 -12z m-2607 -33 c3 -10 10 -26 15
-36 15 -28 1 -77 -22 -77 -10 0 -19 5 -19 12 0 6 -9 22 -21 34 -21 22 -21 23
-3 53 20 34 42 40 50 14z m-673 -28 c-7 -21 -13 -19 -13 6 0 11 4 18 10 14 5
-3 7 -12 3 -20z m3947 -4 c0 -12 -20 -25 -27 -18 -7 7 6 27 18 27 5 0 9 -4 9
-9z m-37 -61 c26 -9 27 -10 10 -27 -28 -28 -67 -51 -121 -71 -72 -28 -81 -15
-32 44 38 47 83 76 105 68 5 -2 22 -8 38 -14z m479 -2 c4 -10 14 -9 47 1 24 7
45 10 48 7 8 -8 7 -87 -2 -119 -8 -30 -47 -46 -69 -28 -7 6 -21 9 -30 5 -9 -3
-16 -1 -16 5 0 6 6 11 14 11 9 0 12 8 8 25 -2 14 -8 25 -12 25 -10 0 -19 50
-13 67 6 16 20 17 25 1z m-3600 -30 c-15 -15 -26 -4 -18 18 5 13 9 15 18 6 9
-9 9 -15 0 -24z m2868 -24 c0 -14 -4 -22 -10 -19 -5 3 -10 17 -10 31 0 14 4
22 10 19 6 -3 10 -17 10 -31z m-2890 -25 c0 -6 8 -8 19 -4 15 4 20 -1 25 -26
10 -50 7 -168 -4 -190 -15 -26 -80 -26 -105 1 -16 18 -16 20 -1 35 11 11 16
34 16 74 0 67 16 121 36 121 8 0 14 -5 14 -11z m466 -17 c6 -9 14 -43 17 -75
4 -48 1 -68 -16 -103 -18 -38 -26 -44 -68 -54 -43 -11 -49 -10 -73 11 -32 28
-46 75 -46 156 0 84 9 92 102 85 49 -3 77 -10 84 -20z m-594 -16 c12 -8 18
-30 20 -67 3 -52 2 -54 -22 -54 -41 0 -50 12 -44 63 9 78 14 83 46 58z m1040
-13 c23 -20 22 -53 -1 -122 -21 -64 -31 -69 -123 -70 -79 -1 -87 7 -80 85 5
72 32 102 102 113 80 13 82 13 102 -6z m423 7 c31 0 44 -43 37 -124 -5 -57
-34 -126 -53 -126 -5 0 -9 -7 -9 -15 0 -24 -19 -18 -32 10 -12 26 -22 30 -72
26 -16 -2 -33 3 -37 11 -12 19 -11 140 2 177 10 29 14 31 60 31 29 0 49 4 49
11 0 6 7 8 16 5 9 -3 26 -6 39 -6z m3191 0 c11 0 14 -16 14 -69 0 -79 -5 -84
-75 -74 -50 6 -52 13 -37 98 6 29 12 39 24 37 9 -1 20 2 23 8 4 6 14 9 22 6 8
-3 21 -6 29 -6z m-461 -20 c13 -21 -6 -50 -32 -50 -19 0 -24 4 -19 16 3 9 6
22 6 30 0 16 36 19 45 4z m-4645 -49 c0 -11 18 -35 40 -54 51 -43 53 -84 10
-166 -41 -77 -61 -88 -101 -59 -17 13 -35 33 -40 46 -5 13 -17 22 -29 22 -13
0 -20 7 -20 19 0 23 49 128 81 176 26 38 59 47 59 16z m2370 0 c21 -40 8 -176
-18 -186 -9 -3 -29 4 -45 16 -25 18 -33 19 -55 10 -36 -17 -57 4 -42 44 6 15
8 42 4 60 -7 38 8 51 79 65 63 12 65 12 77 -9z m401 7 c35 1 46 -39 39 -138
l-5 -74 -38 -9 c-48 -12 -98 -2 -132 25 -26 21 -27 22 -20 102 9 103 15 110
80 101 27 -4 62 -7 76 -7z m3036 -44 c4 -11 13 -14 30 -10 33 9 63 -10 63 -39
0 -13 -4 -27 -10 -30 -5 -3 -9 -28 -8 -55 1 -27 0 -51 -2 -53 -3 -2 -42 0 -88
6 l-83 10 7 71 c7 80 11 89 28 83 7 -3 18 4 24 14 15 23 31 24 39 3z m-2645
-54 c18 6 39 10 45 10 16 0 18 -66 3 -75 -5 -3 -10 -23 -10 -45 0 -43 -10 -50
-71 -50 -71 0 -79 10 -79 100 0 65 3 81 18 89 13 8 22 5 39 -14 19 -21 25 -23
55 -15z m2233 0 c3 -5 -1 -10 -9 -10 -9 0 -16 5 -16 10 0 6 4 10 9 10 6 0 13
-4 16 -10z m1002 -30 c4 -38 -17 -63 -43 -53 -17 6 -18 31 -1 66 16 37 39 30
44 -13z m-2156 -67 l48 -28 -2 -50 c-1 -27 1 -57 3 -65 7 -22 -125 -27 -149
-6 -23 21 -12 143 15 163 24 18 29 17 85 -14z m-377 -2 c35 -29 12 -160 -27
-162 -142 -9 -148 -4 -136 94 5 37 11 73 15 78 9 15 128 7 148 -10z m-2029
-50 c-9 -16 -25 -3 -18 15 4 10 9 12 15 6 6 -6 7 -15 3 -21z m2796 -41 c38
-47 49 -50 49 -12 l0 27 17 -33 c24 -49 9 -87 -34 -87 -17 0 -35 -3 -39 -7 -4
-5 -20 -8 -36 -8 l-28 0 0 80 c0 73 2 80 20 80 10 0 33 -18 51 -40z m-3609
-43 c4 -7 8 -48 8 -92 0 -105 -13 -125 -79 -125 -42 0 -51 4 -66 27 -25 38
-22 175 5 214 l20 27 52 -20 c29 -11 56 -25 60 -31z m-711 11 c26 -27 30 -39
25 -66 -3 -19 0 -41 5 -50 12 -19 -14 -92 -32 -92 -6 0 -29 14 -50 31 -44 35
-47 52 -24 138 11 45 27 70 42 71 2 0 17 -15 34 -32z m306 -9 c45 -22 50 -31
55 -106 l4 -43 -43 0 c-32 0 -43 -4 -43 -15 0 -9 -9 -15 -23 -15 -26 0 -42 32
-53 103 -6 42 -3 51 17 73 27 29 31 29 86 3z m843 -36 c20 -20 15 -166 -5
-187 -21 -21 -83 -31 -115 -19 -14 5 -36 6 -48 2 -17 -6 -23 -3 -29 14 -10 29
-4 179 8 193 10 13 177 10 189 -3z m451 -10 c6 -16 7 -58 3 -106 -6 -73 -9
-80 -39 -103 -17 -13 -43 -24 -56 -24 -40 0 -103 21 -116 38 -18 22 -16 135 1
177 14 33 16 34 83 38 37 2 78 4 91 5 16 1 25 -5 33 -25z m3209 12 c0 -8 -4
-15 -10 -15 -5 0 -10 -11 -10 -25 0 -14 -4 -25 -10 -25 -5 0 -10 4 -10 10 0 5
-15 16 -32 24 l-33 14 32 1 c18 1 38 8 45 16 17 19 28 19 28 0z m-130 -16 c0
-5 -7 -9 -15 -9 -15 0 -20 12 -9 23 8 8 24 -1 24 -14z m-5132 -42 c7 -6 20
-24 29 -40 14 -28 14 -33 -8 -76 -40 -82 -52 -78 -68 24 -17 106 -4 132 47 92z
m2490 -6 c8 -10 10 -26 6 -41 -4 -14 -6 -40 -5 -58 3 -56 -14 -74 -67 -71 -59
3 -95 15 -116 38 -13 15 -14 26 -5 77 7 32 13 65 15 71 5 20 155 6 172 -16z
m441 10 c10 -7 14 -30 12 -92 -2 -117 -1 -116 -66 -116 -30 0 -55 3 -55 8 0 4
-13 4 -29 -1 -48 -13 -62 11 -58 103 2 42 5 78 7 80 31 26 157 38 189 18z
m2211 -31 c0 -5 -4 -10 -10 -10 -5 0 -10 5 -10 10 0 6 5 10 10 10 6 0 10 -4
10 -10z m798 -29 c2 -6 9 -8 14 -4 8 4 9 -9 5 -42 -4 -26 -7 -61 -7 -76 0 -28
-1 -29 -54 -29 l-54 0 -5 48 c-2 26 -5 64 -6 86 l-1 39 52 -5 c29 -3 54 -11
56 -17z m569 -63 c-3 -7 -5 -2 -5 12 0 14 2 19 5 13 2 -7 2 -19 0 -25z m-2611
-33 c4 -8 11 -12 18 -8 6 4 27 8 47 8 l35 0 1 -92 c0 -83 -2 -93 -18 -93 -10
0 -21 5 -24 10 -4 7 -12 7 -25 0 -45 -24 -110 0 -110 42 0 14 -8 18 -32 19
-18 0 -27 3 -20 6 14 6 16 42 2 63 -12 20 -19 11 -22 -33 -2 -33 -5 -37 -29
-37 -45 0 -59 10 -59 41 0 23 6 32 27 40 16 6 36 17 45 26 12 11 27 13 52 9
20 -4 37 -2 41 4 10 16 65 12 71 -5z m495 -45 c28 0 28 1 35 -85 5 -52 3 -62
-15 -72 -13 -9 -29 -9 -53 -3 -18 6 -50 10 -70 10 -43 0 -41 -5 -38 100 2 96
14 108 73 74 23 -13 54 -24 68 -24z m-3251 14 c0 -14 -3 -14 -15 -4 -8 7 -15
14 -15 16 0 2 7 4 15 4 8 0 15 -7 15 -16z m-828 -28 c75 -23 88 -33 88 -68 0
-36 -57 -127 -79 -128 -8 0 -29 11 -47 25 -18 14 -39 25 -48 25 -29 0 -34 30
-14 84 15 39 42 78 52 76 1 0 22 -7 48 -14z m787 -51 c11 -19 27 -35 34 -35
26 0 37 -27 49 -114 10 -78 9 -88 -7 -106 -24 -26 -85 -27 -116 -1 -22 18 -24
27 -24 110 0 59 4 94 13 103 6 6 12 27 12 45 0 43 13 42 39 -2z m3637 1 c3
-13 1 -33 -5 -43 -8 -16 -5 -22 21 -37 20 -12 27 -21 20 -28 -17 -17 -62 0
-62 22 0 10 -4 22 -10 25 -5 3 -10 24 -10 46 0 32 3 39 20 39 12 0 22 -9 26
-24z m-3876 -16 c16 -10 27 -131 15 -177 l-7 -28 -18 23 c-15 18 -23 21 -44
12 -21 -8 -28 -5 -46 17 -11 14 -20 40 -20 58 0 18 -3 46 -6 63 -6 30 -5 31
37 35 24 2 51 4 59 5 8 1 22 -2 30 -8z m704 -82 c11 -15 16 -45 16 -93 0 -116
-42 -160 -130 -137 l-40 10 0 -33 c0 -18 7 -38 15 -45 8 -7 15 -24 14 -39 0
-14 -3 -20 -6 -13 -2 6 -11 12 -19 12 -8 0 -14 3 -15 8 0 4 -2 36 -4 72 -2 36
-7 107 -10 158 -9 118 -6 122 91 122 64 0 75 -3 88 -22z m304 -7 c9 -5 41 -5
70 -1 81 10 86 3 79 -113 -3 -64 -11 -104 -21 -119 -9 -12 -16 -18 -16 -13 0
6 -34 10 -78 10 -101 0 -106 5 -103 108 2 78 12 114 35 129 14 10 14 10 34 -1z
m520 -32 c35 -4 66 -10 70 -14 4 -3 9 -44 10 -89 5 -107 -3 -116 -101 -116
-115 0 -117 2 -117 74 0 99 32 178 63 159 7 -4 40 -10 75 -14z m432 -34 c7 -8
25 -15 40 -15 38 0 53 -20 40 -54 -5 -15 -16 -26 -22 -25 -32 4 -42 -1 -30
-13 7 -7 12 -20 12 -30 0 -10 6 -17 13 -15 6 1 12 -7 12 -18 0 -17 -9 -21 -50
-26 -83 -10 -99 -1 -109 60 -7 38 -6 59 2 72 7 10 12 30 12 43 0 36 56 50 80
21z m-2690 -145 c11 -21 25 -41 32 -44 10 -5 10 -7 1 -12 -18 -8 -16 -33 2
-40 34 -13 11 -24 -51 -24 l-66 0 6 72 c5 50 12 75 24 84 21 16 28 11 52 -36z
m3613 -11 c21 -15 31 -17 47 -9 11 6 25 8 30 5 5 -3 11 -1 15 5 3 5 21 10 39
10 18 0 48 5 66 11 43 15 51 1 43 -76 -6 -64 -12 -72 -56 -82 -15 -3 -32 -14
-38 -24 -14 -26 -36 -24 -43 5 -7 28 -51 39 -139 36 -94 -4 -107 -2 -107 19 0
11 5 23 10 26 6 3 10 21 10 38 0 18 4 37 8 43 18 28 72 24 115 -7z m675 9 c14
-12 16 -61 3 -86 -5 -9 -15 -36 -22 -59 l-12 -43 -77 0 c-97 0 -103 6 -97 99
6 99 15 107 114 103 43 -2 84 -8 91 -14z m-3306 -22 c8 -13 10 -12 -24 -20
-25 -6 -28 -4 -28 19 0 23 3 25 23 19 12 -4 25 -12 29 -18z m-233 -42 c29 -48
27 -53 -15 -44 -58 13 -72 55 -24 73 8 3 16 6 17 6 0 1 10 -15 22 -35z m3928
-31 c3 -7 2 -20 -1 -29 -5 -13 -9 -14 -20 -5 -11 9 -15 9 -18 0 -2 -6 -19 -17
-38 -23 -24 -8 -36 -18 -38 -33 -4 -26 -20 -30 -28 -8 -8 21 4 67 16 60 6 -3
10 1 10 9 0 9 -4 16 -10 16 -5 0 -10 4 -10 9 0 5 13 8 28 6 16 -2 35 0 43 5
20 13 60 8 66 -7z m-3623 -132 c15 -58 10 -66 -36 -59 -20 3 -24 11 -31 61
-15 110 38 109 67 -2z m309 52 c41 -4 48 -8 52 -31 3 -15 10 -46 15 -70 20
-84 11 -107 -40 -107 -29 0 -40 11 -40 42 0 25 -35 53 -67 53 -28 0 -33 8 -35
59 -2 49 17 75 46 65 12 -3 42 -9 69 -11z m4728 -16 c-10 -9 -11 -8 -5 6 3 10
9 15 12 12 3 -3 0 -11 -7 -18z m-6000 -18 c5 -8 9 -38 9 -66 0 -71 15 -69 80
11 29 35 62 66 73 68 45 7 147 -4 147 -16 0 -7 -43 -61 -95 -121 -52 -61 -94
-115 -95 -122 0 -6 37 -51 81 -100 105 -114 132 -150 124 -163 -3 -5 -40 -10
-83 -10 l-76 0 -74 77 c-83 86 -92 85 -92 -8 0 -43 -4 -58 -16 -63 -26 -10
-109 -7 -121 5 -15 15 -5 511 11 522 18 13 117 2 127 -14z m1592 -4 c8 -8 54
-66 102 -130 48 -63 91 -115 96 -115 11 0 12 15 11 135 -1 117 4 125 76 125
32 0 63 -5 70 -12 19 -19 17 -501 -2 -517 -8 -7 -37 -11 -67 -9 l-53 3 -99
128 c-54 70 -103 125 -108 122 -5 -4 -9 -58 -9 -120 0 -129 -4 -135 -77 -135
-75 0 -74 -5 -75 271 -1 135 2 250 6 257 11 18 111 15 129 -3z m1518 -3 c15
-13 22 -30 22 -52 0 -66 -80 -94 -129 -44 -63 62 37 152 107 96z m1414 -3 c8
-12 -11 -20 -29 -13 -24 9 -20 33 4 27 11 -3 23 -9 25 -14z m-1867 -1 c7 -7
12 -42 12 -86 l0 -74 43 8 c64 12 104 8 137 -16 51 -36 63 -72 66 -197 1 -62
0 -121 -3 -131 -6 -23 -79 -37 -118 -22 -24 9 -24 12 -27 121 -3 122 -11 138
-60 126 -35 -9 -41 -26 -47 -142 l-6 -100 -65 0 -65 0 -3 249 c-2 175 1 253 9
262 14 17 110 19 127 2z m1229 -14 c13 -18 17 -472 3 -493 -10 -18 -88 -25
-122 -12 -26 10 -27 13 -30 98 l-3 88 -84 3 c-61 2 -87 -1 -92 -10 -5 -7 -9
-50 -9 -94 l0 -81 -49 -7 c-27 -3 -60 -2 -75 4 l-26 10 0 239 c0 132 3 246 6
255 5 12 21 16 74 16 63 0 68 -2 74 -24 3 -13 3 -51 0 -83 -9 -84 4 -95 105
-91 l76 3 5 89 c4 69 10 91 23 101 24 17 108 9 124 -11z m1085 5 c79 -21 128
-90 128 -181 0 -59 -23 -106 -65 -134 -14 -9 -25 -22 -25 -28 0 -13 87 -136
104 -148 23 -16 -16 -35 -74 -37 -68 -2 -83 8 -154 111 -65 95 -93 87 -98 -25
l-3 -72 -70 0 -70 0 -3 255 c-2 226 -1 256 14 267 19 14 256 8 316 -8z m-3232
-32 c0 -20 -25 1 -28 24 -2 23 -2 23 13 5 8 -11 15 -24 15 -29z m4052 27 c4
-3 8 -35 8 -72 0 -83 7 -96 44 -82 67 25 137 5 178 -52 21 -31 23 -42 23 -173
l0 -140 -53 -3 c-77 -4 -82 3 -82 115 0 109 -9 133 -49 133 -46 0 -55 -22 -61
-139 l-5 -106 -65 0 -65 0 -3 258 -2 258 22 9 c22 9 91 5 110 -6z m458 -4 c42
-42 7 -120 -55 -120 -30 0 -75 44 -75 73 0 59 87 90 130 47z m-4043 -26 c16
-15 6 -24 -26 -24 -27 0 -82 -18 -117 -37 -12 -7 -24 -9 -28 -6 -11 11 -7 58
7 72 15 15 146 11 164 -5z m-1751 -105 c6 -5 21 -42 33 -83 32 -108 42 -111
76 -23 43 113 47 117 108 117 68 0 81 -9 68 -43 -9 -23 -85 -197 -136 -312 -8
-16 -27 -60 -43 -96 -16 -37 -34 -69 -38 -72 -5 -3 -34 -7 -63 -8 -75 -4 -81
9 -42 91 17 35 31 71 31 79 0 9 -30 90 -67 180 -59 144 -65 165 -51 175 17 13
107 9 124 -5z m463 2 c9 -6 15 -41 18 -117 3 -60 10 -115 16 -121 5 -7 22 -13
38 -13 46 0 59 31 59 137 0 70 4 95 16 107 18 19 94 22 112 4 14 -14 17 -325
3 -346 -5 -9 -33 -13 -92 -12 -46 1 -106 -1 -134 -5 -71 -9 -115 11 -143 68
-19 38 -22 60 -22 164 0 79 4 123 12 131 14 14 96 16 117 3z m1426 -4 l90 -2
3 -182 2 -183 -55 0 c-31 0 -65 5 -76 10 -13 8 -26 7 -41 -1 -34 -18 -131 -13
-170 9 -96 54 -117 203 -40 292 47 56 84 72 147 64 28 -3 91 -6 140 -7z m779
-13 c3 -9 6 -89 6 -179 0 -184 -1 -185 -74 -185 -68 0 -66 -6 -66 190 0 133 3
180 13 183 6 3 35 6 63 6 39 1 53 -3 58 -15z m1133 1 c113 -33 164 -166 107
-277 -36 -71 -148 -112 -246 -90 -98 22 -158 94 -158 188 0 145 136 227 297
179z m1134 0 c28 -10 52 -13 69 -8 14 5 45 6 70 3 l45 -5 0 -180 0 -180 -53
-3 c-30 -2 -60 2 -67 8 -10 8 -24 8 -52 1 -95 -27 -177 -5 -219 59 -71 108
-20 270 97 307 48 15 61 15 110 -2z m873 -28 c11 -43 7 -322 -6 -335 -16 -16
-110 -16 -126 0 -17 17 -17 332 1 346 13 12 70 19 104 14 11 -2 24 -14 27 -25z
m-1734 -107 c8 -54 -12 -114 -40 -118 -20 -3 -22 0 -17 20 4 12 7 49 7 81 0
55 1 58 23 55 17 -2 23 -11 27 -38z m-3187 -30 c41 0 47 -112 7 -125 -46 -15
-80 26 -80 95 0 33 9 43 35 36 11 -3 28 -6 38 -6z m5107 -112 c0 -10 -4 -18
-10 -18 -5 0 -10 15 -10 33 0 24 3 28 10 17 5 -8 10 -23 10 -32z m-6810 -40
c0 -16 -3 -19 -11 -11 -6 6 -8 16 -5 22 11 17 16 13 16 -11z m2087 -17 c33
-48 39 -93 17 -126 -13 -20 -24 -25 -41 -22 -13 2 -23 0 -23 -4 0 -5 6 -9 13
-10 10 0 10 -2 0 -6 -7 -2 -13 -19 -13 -36 l0 -31 -22 21 c-19 20 -20 26 -10
60 6 21 16 73 23 116 8 45 17 76 23 74 6 -2 21 -18 33 -36z m336 -111 c-27 -4
-39 -1 -41 9 -7 24 20 31 51 13 l29 -17 -39 -5z m1281 25 c18 -12 51 -16 135
-16 103 0 111 -1 122 -21 14 -26 6 -153 -11 -173 -16 -19 -55 -26 -84 -15 -23
8 -26 15 -26 58 0 26 -5 53 -12 60 -8 8 -45 12 -100 12 l-88 0 0 41 c0 28 6
46 18 55 21 17 18 17 46 -1z m-694 -30 c0 -14 -6 -41 -14 -59 -11 -27 -21 -35
-51 -40 -40 -8 -84 -49 -85 -78 0 -12 -8 -18 -21 -18 -20 0 -21 4 -16 43 3 23
9 51 12 63 4 13 1 27 -9 37 -16 16 -22 58 -9 70 3 4 48 7 100 7 93 0 93 0 93
-25z m-1841 -42 c1 -7 -6 -13 -14 -13 -16 0 -18 12 -8 50 l7 25 7 -25 c4 -14
7 -31 8 -37z m655 51 c11 -4 16 -19 16 -50 0 -37 -6 -51 -46 -96 -26 -29 -57
-65 -70 -80 -25 -29 -48 -36 -59 -17 -8 12 18 71 39 88 8 7 20 38 27 69 6 31
15 65 20 75 10 17 43 22 73 11z m2539 -31 c6 -38 -3 -109 -17 -131 -12 -19
-44 -14 -92 14 -27 16 -44 33 -44 44 0 23 26 50 49 50 9 0 27 14 39 30 32 43
58 40 65 -7z m374 -14 c18 -12 43 -19 53 -16 17 4 20 0 20 -25 0 -16 -5 -38
-10 -49 -10 -18 -13 -16 -49 21 -32 34 -44 40 -78 40 -46 0 -53 4 -46 31 7 26
65 25 110 -2z m2103 -50 c0 -5 4 -7 10 -4 10 6 16 -14 23 -82 6 -47 10 -43
-94 -67 -35 -8 -48 10 -56 71 -5 46 -3 51 22 71 29 23 95 31 95 11z m-6846
-31 c9 -14 16 -54 18 -98 l3 -75 -65 -6 c-36 -3 -69 -2 -74 2 -18 16 1 146 27
187 14 21 75 15 91 -10z m2454 -23 c106 -32 163 -123 141 -226 -21 -97 -92
-146 -219 -150 -41 -2 -81 -7 -87 -12 -8 -5 -13 -31 -13 -61 0 -29 -5 -57 -12
-64 -12 -12 -95 -16 -122 -6 -14 5 -16 38 -16 258 0 183 3 255 12 264 18 18
251 16 316 -3z m-1524 -42 c-25 -18 -31 -16 -37 13 -4 21 -1 25 14 21 11 -3
22 0 26 6 5 8 9 5 11 -7 2 -11 -4 -26 -14 -33z m1101 33 c28 -20 31 -170 4
-197 -24 -24 -96 -20 -116 7 -17 24 -17 40 7 103 35 97 61 119 105 87z m1510
4 c4 -6 6 -124 6 -262 0 -192 -4 -254 -13 -260 -22 -13 -95 -9 -108 7 -10 12
-17 12 -51 -2 -50 -20 -142 -12 -178 14 -14 11 -38 43 -54 73 -23 46 -26 62
-21 104 9 70 46 131 94 156 46 24 67 26 138 16 l52 -8 0 67 c0 93 8 105 75
105 29 0 57 -5 60 -10z m218 -2 c12 -10 17 -32 19 -88 2 -61 6 -74 18 -71 97
24 163 5 203 -58 20 -32 22 -49 22 -163 0 -69 -3 -130 -7 -134 -15 -14 -103
-17 -115 -3 -6 8 -13 60 -15 116 -3 110 -10 126 -54 126 -44 0 -54 -25 -54
-135 0 -110 -5 -118 -77 -118 -71 0 -68 -9 -65 267 3 276 2 273 72 273 20 0
44 -6 53 -12z m960 -19 c52 -70 -55 -146 -117 -83 -24 24 -20 80 7 99 33 23
86 16 110 -16z m-1790 -36 c-7 -2 -21 -2 -30 0 -10 3 -4 5 12 5 17 0 24 -2 18
-5z m-1385 -41 c2 -14 -8 -35 -27 -58 -39 -43 -77 -118 -86 -167 -4 -20 -11
-34 -16 -31 -5 3 -9 -6 -9 -20 0 -14 -5 -26 -11 -26 -7 0 -9 8 -4 23 4 12 13
47 20 77 7 30 20 72 29 92 9 21 16 47 16 59 0 11 8 34 17 50 22 37 66 38 71 1z
m-269 -41 c24 -24 17 -71 -10 -71 -38 0 -69 23 -79 58 -13 50 2 67 42 46 16
-8 37 -23 47 -33z m387 -39 c15 -8 21 -22 22 -52 1 -23 5 -46 8 -51 9 -15 -6
-126 -19 -143 -7 -8 -33 -16 -65 -18 -48 -3 -54 -1 -65 22 -7 14 -23 26 -35
28 -27 4 -27 3 4 104 19 61 36 93 63 120 34 36 37 37 51 19 9 -10 25 -23 36
-29z m1210 23 c27 -11 46 -12 85 -5 66 13 97 5 105 -27 12 -44 -6 -316 -21
-332 -14 -14 -110 -7 -120 10 -3 4 -17 4 -31 -1 -14 -6 -53 -10 -87 -10 -83 0
-120 23 -154 96 -21 46 -24 63 -18 107 4 29 13 63 20 77 42 80 141 119 221 85z
m1535 -6 c61 2 89 -1 95 -10 9 -16 9 -333 0 -348 -8 -12 -100 -14 -131 -2 -12
5 -37 2 -62 -8 -72 -26 -166 9 -206 77 -41 70 -30 185 23 246 37 41 81 57 145
49 28 -3 89 -5 136 -4z m314 -184 l0 -180 -47 -3 c-88 -6 -88 -6 -88 188 0
125 3 170 13 174 6 2 37 4 67 3 l55 -2 0 -180z m1175 101 c0 -3 -4 -8 -10 -11
-5 -3 -10 -1 -10 4 0 6 5 11 10 11 6 0 10 -2 10 -4z m-4945 -120 c-8 -57 -15
-61 -36 -26 -21 34 -17 80 7 80 8 0 14 10 15 23 1 18 2 17 10 -8 5 -16 7 -48
4 -69z m5915 22 c-23 -25 -24 -32 -8 -57 14 -23 -3 -51 -32 -51 -14 0 -19 12
-26 58 -4 31 -8 61 -9 67 0 14 56 23 78 13 16 -8 16 -10 -3 -30z m-5659 8 c-9
-11 -8 -17 4 -29 27 -27 18 -59 -38 -130 -16 -21 -43 -45 -59 -53 -30 -16 -31
-16 -25 8 19 78 71 207 86 211 35 10 44 8 32 -7z m790 -56 l47 0 11 -50 c28
-128 2 -165 -94 -133 -65 21 -81 49 -71 120 7 52 33 90 50 73 5 -5 31 -10 57
-10z m-632 -107 c-18 -85 -72 -185 -108 -201 -17 -7 -33 -23 -37 -34 -9 -29
-24 -4 -24 42 0 40 8 53 94 160 96 119 93 118 75 33z m159 -86 c6 0 12 -6 12
-14 0 -7 11 -13 25 -13 23 0 25 -3 25 -50 0 -27 -4 -50 -10 -50 -5 0 -10 -8
-10 -17 0 -10 -7 -27 -15 -37 -8 -11 -15 -30 -15 -42 0 -12 -12 -36 -26 -53
l-26 -31 -26 28 c-15 15 -42 34 -60 42 -27 10 -32 17 -27 34 3 12 10 48 16 81
6 33 18 77 26 98 16 37 17 38 57 31 23 -4 47 -7 54 -7z m1260 -8 c59 -10 62
-12 62 -40 0 -44 -21 -132 -36 -146 -7 -7 -19 -10 -27 -7 -9 3 -25 0 -37 -6
-27 -15 -93 -21 -110 -10 -20 12 -16 78 9 159 21 70 23 73 49 67 15 -3 55 -10
90 -17z m1498 -86 c17 -41 13 -156 -7 -180 -29 -35 -140 39 -118 79 16 30 11
58 -11 58 -14 0 -20 7 -20 24 0 23 23 41 39 32 4 -3 25 1 47 9 53 19 52 20 70
-22z m-2296 13 c0 -2 -7 -7 -16 -10 -8 -3 -12 -2 -9 4 6 10 25 14 25 6z
m-1013 -32 c7 -20 -15 -89 -39 -119 -10 -13 -21 -38 -25 -55 -6 -35 -28 -49
-46 -31 -6 6 -21 11 -34 11 -40 0 -23 49 44 130 70 83 88 95 100 64z m2777
-109 c-8 -64 -15 -69 -93 -78 -69 -8 -81 2 -81 65 0 66 22 108 58 108 15 1 41
7 57 14 29 13 31 12 48 -20 13 -26 16 -46 11 -89z m2831 77 c18 -12 35 -61 35
-98 0 -28 -5 -36 -27 -45 -18 -7 -37 -7 -53 -2 -23 8 -25 13 -22 57 5 71 36
111 67 88z m-2458 -24 c-3 -8 -6 -5 -6 6 -1 11 2 17 5 13 3 -3 4 -12 1 -19z
m-1007 -48 c0 -16 -4 -30 -10 -30 -5 0 -10 14 -10 30 0 17 5 30 10 30 6 0 10
-13 10 -30z m-1730 -131 c0 -5 -4 -9 -10 -9 -5 0 -10 7 -10 16 0 8 5 12 10 9
6 -3 10 -10 10 -16z"/>
<path d="M4880 6130 c0 -5 5 -10 11 -10 5 0 7 5 4 10 -3 6 -8 10 -11 10 -2 0
-4 -4 -4 -10z"/>
<path d="M4072 5660 c0 -14 2 -19 5 -12 2 6 2 18 0 25 -3 6 -5 1 -5 -13z"/>
<path d="M4020 4340 c0 -11 4 -20 9 -20 5 0 7 9 4 20 -3 11 -7 20 -9 20 -2 0
-4 -9 -4 -20z"/>
<path d="M6205 3949 c-4 -6 -3 -15 3 -21 6 -6 11 -4 15 6 7 18 -9 31 -18 15z"/>
<path d="M3541 3164 c0 -11 3 -14 6 -6 3 7 2 16 -1 19 -3 4 -6 -2 -5 -13z"/>
<path d="M4653 3103 c-27 -10 -11 -23 30 -23 41 1 42 1 17 15 -27 16 -29 16
-47 8z"/>
<path d="M5323 1603 c-17 -6 -17 -95 -1 -111 20 -20 112 -15 131 6 22 25 21
75 -1 95 -18 16 -99 23 -129 10z"/>
<path d="M2697 1453 c-27 -30 -29 -65 -7 -100 16 -27 26 -33 55 -33 47 0 75
29 75 78 0 25 -7 45 -18 55 -25 22 -85 22 -105 0z"/>
<path d="M4642 1440 c-49 -46 -14 -130 52 -130 37 0 49 7 65 37 16 32 14 57
-10 87 -26 33 -75 35 -107 6z"/>
<path d="M5853 1450 c-45 -19 -56 -80 -22 -124 42 -53 129 -19 129 51 0 56
-56 94 -107 73z"/>
<path d="M2447 845 c-20 -19 -23 -95 -5 -113 20 -20 102 -15 132 9 31 24 35
68 7 93 -28 25 -113 33 -134 11z"/>
<path d="M3436 679 c-29 -34 -32 -50 -14 -82 16 -31 39 -46 70 -47 33 0 68 41
68 80 0 15 -9 39 -21 54 -29 37 -70 35 -103 -5z"/>
<path d="M2950 690 c-33 -33 -30 -85 6 -117 32 -29 56 -29 89 0 36 30 38 92 5
119 -29 24 -75 23 -100 -2z m47 -62 c-3 -8 -6 -5 -6 6 -1 11 2 17 5 13 3 -3 4
-12 1 -19z"/>
<path d="M4408 695 c-32 -18 -42 -45 -34 -89 12 -60 91 -75 129 -24 28 37 17
92 -23 113 -35 18 -38 18 -72 0z"/>
<path d="M3444 7486 c-3 -8 -29 -27 -57 -41 -67 -35 -105 -70 -128 -120 -23
-49 -23 -59 -4 -79 19 -19 126 -15 158 7 14 9 64 17 132 21 61 4 118 9 128 12
10 3 40 0 68 -6 55 -13 76 -38 60 -68 -14 -27 -127 -75 -186 -79 -32 -2 -55
-10 -63 -21 -9 -12 -15 -14 -20 -5 -6 9 -16 9 -45 -1 -20 -7 -40 -15 -43 -19
-4 -4 -17 -7 -29 -7 -27 0 -79 -63 -88 -107 -8 -38 -2 -41 98 -45 39 -2 76 -9
83 -15 7 -7 29 -13 49 -13 26 0 36 5 40 20 3 12 14 20 25 20 17 0 18 -3 8 -15
-16 -19 -8 -29 42 -55 24 -12 45 -26 48 -30 5 -8 47 -4 235 18 59 7 60 7 84
55 15 31 29 47 42 47 12 0 19 7 19 20 0 11 -4 20 -10 20 -5 0 -10 -4 -10 -10
0 -5 -5 -10 -11 -10 -6 0 -9 16 -7 38 2 23 8 36 16 34 6 -1 12 4 12 11 0 8 9
22 19 31 13 12 22 37 26 75 4 31 11 68 16 82 21 54 -21 133 -88 168 -12 6 -64
14 -115 17 -95 6 -217 27 -249 44 -10 6 -42 7 -78 2 -37 -5 -64 -5 -70 1 -17
17 -101 19 -107 3z m154 -488 c6 -17 11 -32 9 -32 -1 -1 -17 -9 -36 -19 -32
-17 -34 -17 -47 0 -21 28 -17 49 13 71 33 24 45 20 61 -20z"/>
<path d="M2961 6584 c0 -11 3 -14 6 -6 3 7 2 16 -1 19 -3 4 -6 -2 -5 -13z"/>
<path d="M2937 6430 c3 -11 9 -20 14 -20 11 0 11 3 3 24 -9 23 -23 20 -17 -4z"/>
<path d="M2951 6384 c0 -11 3 -14 6 -6 3 7 2 16 -1 19 -3 4 -6 -2 -5 -13z"/>
<path d="M2950 6308 c-1 -67 -2 -139 -1 -239 l1 -70 28 3 c32 4 41 36 19 69
-13 18 -13 24 -1 47 16 31 19 98 4 107 -5 3 -10 26 -10 49 0 29 -7 52 -20 67
l-19 24 -1 -57z m32 -190 c-7 -7 -12 -8 -12 -2 0 14 12 26 19 19 2 -3 -1 -11
-7 -17z"/>
<path d="M3070 5981 c0 -6 4 -13 10 -16 6 -3 7 1 4 9 -7 18 -14 21 -14 7z"/>
<path d="M3370 5813 c0 -7 -7 -13 -15 -13 -13 0 -15 -35 -5 -98 0 -2 7 3 15
12 21 20 29 70 16 93 -6 10 -11 12 -11 6z"/>
<path d="M3295 5770 c-3 -5 -1 -10 4 -10 6 0 11 5 11 10 0 6 -2 10 -4 10 -3 0
-8 -4 -11 -10z"/>
<path d="M5280 5175 l0 -25 20 20 c11 11 20 22 20 25 0 3 -9 5 -20 5 -15 0
-20 -7 -20 -25z"/>
<path d="M5518 5193 c7 -3 16 -2 19 1 4 3 -2 6 -13 5 -11 0 -14 -3 -6 -6z"/>
<path d="M5525 5120 c3 -5 14 -10 24 -10 21 0 44 -23 34 -33 -3 -4 -2 -7 4 -7
23 0 20 14 -6 36 -28 24 -68 34 -56 14z"/>
<path d="M5285 5080 c4 -6 11 -8 16 -5 14 9 11 15 -7 15 -8 0 -12 -5 -9 -10z"/>
<path d="M5497 5084 c-12 -12 25 -54 47 -53 12 0 15 3 8 6 -7 3 -17 16 -22 29
-9 24 -21 30 -33 18z"/>
<path d="M5423 5063 c-26 -9 -12 -28 33 -47 25 -10 47 -16 50 -13 8 8 -70 64
-83 60z"/>
<path d="M5450 4935 c0 -8 5 -15 10 -15 6 0 10 7 10 15 0 8 -4 15 -10 15 -5 0
-10 -7 -10 -15z"/>
<path d="M6234 4915 c-3 -8 -4 -20 -2 -27 3 -7 7 -1 10 15 6 29 1 36 -8 12z"/>
<path d="M5477 4844 c-15 -16 -5 -24 28 -24 19 0 35 5 35 10 0 6 -6 10 -14 10
-8 0 -21 2 -28 5 -8 3 -17 2 -21 -1z"/>
<path d="M271 4124 c0 -11 3 -14 6 -6 3 7 2 16 -1 19 -3 4 -6 -2 -5 -13z"/>
<path d="M7192 3220 c0 -14 2 -19 5 -12 2 6 2 18 0 25 -3 6 -5 1 -5 -13z"/>
<path d="M7185 3030 c3 -5 8 -10 11 -10 2 0 4 5 4 10 0 6 -5 10 -11 10 -5 0
-7 -4 -4 -10z"/>
<path d="M2443 162 c-10 -6 -10 -12 2 -28 14 -18 14 -18 15 9 0 30 0 30 -17
19z"/>
</g>
</svg>
